<svg viewBox="0 0 242.1 124" height="50">
 <g>
  <title>Layer 1</title>
  <path d="m25.58821,53.82353c0.58824,-0.29412 1.30099,-0.71419 2.94118,-2.05883c0.965,-0.79111 2.89325,-2.68119 5,-5.58823c0.86296,-1.19077 2.75262,-3.57124 4.11765,-6.17647c0.43166,-0.82385 0.99562,-2.75648 1.76471,-3.82353c0.24321,-0.33744 0.79193,-1.5253 1.17647,-2.05883c0.24321,-0.33743 0.58823,-0.29412 0.58823,0.29412c0,0.58823 0.10965,1.17988 0,2.94117c-0.14734,2.36667 -0.48734,3.5514 -1.17647,6.47059c-0.77047,3.26375 -0.89723,5.34378 -1.76471,9.41176c-0.89312,4.18825 -1.29843,5.90265 -1.76471,9.11765c-0.43051,2.96836 -0.98995,4.08749 -1.76471,7.05883c-0.68416,2.6239 -0.32748,3.89529 -1.17647,6.47058c-0.90694,2.75109 -1.71263,3.72203 -2.35294,5.58824c-0.48671,1.41853 -0.7015,2.16824 -1.47059,3.23529c-0.24321,0.33743 -1.06289,0.9697 -1.76471,1.7647c-0.43525,0.49304 -0.58823,0.88235 -1.17647,1.17648c-0.58823,0.29411 -0.83051,0.73125 -1.47059,0.88235c-0.5725,0.13515 -0.88235,0 -1.17647,0c-0.29412,0 -0.58824,0 -0.88235,0c-0.29412,0 -0.58824,0 -0.88235,0c-0.29412,0 -0.653,-0.2338 -1.47059,-1.17648c-0.96353,-1.11096 -1.33794,-1.94306 -2.35294,-3.52941c-1.41781,-2.2159 -1.63785,-3.17139 -2.35294,-5.29411c-0.38715,-1.14922 -0.58824,-1.47059 -0.58824,-2.05882l0,-0.29412" id="svg_12" stroke="#000" fill="none"/>
  <path d="m62.35291,29.41177c0.29412,0 0.58824,0.29412 0.58824,0.58823c0,0.29412 0.3748,1.14264 0.58823,1.76471c0.48671,1.41854 0.90705,2.63535 1.17647,3.23529c0.64885,1.44487 0.97153,2.87334 1.17647,3.23529c0.59748,1.05527 0.63216,1.90419 0.88235,2.05882c0.55945,0.34576 0.58823,0.58823 0.88235,0.58823c0.29411,0 0.29411,-0.29411 0.58823,-0.88235c0.29412,-0.58824 1.0128,-1.28842 1.47059,-2.94118c0.15702,-0.56689 0.62321,-2.12218 1.17647,-3.82353c0.20338,-0.62543 0.96723,-2.02008 1.47059,-3.23529c0.35593,-0.85928 1.02749,-1.72899 1.17647,-2.64706c0.04711,-0.29032 0,-0.58823 0.29412,-0.88235c0.29411,-0.29412 0.58823,-0.88235 0.29411,-0.88235c-0.29412,0 0,0.88235 0,1.17647c0,1.76471 0,3.82353 0,5c0,3.52941 0,7.94118 0,10.29412c0,5 0.01106,10.00161 -0.29411,12.05882c-0.56767,3.82664 -0.89785,6.76094 -1.17647,7.94117c-0.623,2.63909 -1.11724,5.0131 -1.47059,6.47059c-0.50449,2.08093 -1.48983,4.40559 -1.76471,5.29411c-0.63283,2.04556 -1.29879,3.45914 -1.7647,4.41177c-0.81726,1.67102 -0.99046,2.97137 -1.17648,3.52941c-0.46503,1.39512 -1.43461,2.37235 -1.7647,2.94118c-0.53226,0.9172 -1.02184,1.80863 -1.17647,2.05882c-0.34576,0.55945 -0.88235,0.88235 -1.17647,0.88235c-0.29412,0 -0.58823,0 -0.88235,-0.29412c-0.58823,-0.58823 -0.88235,-0.88235 -1.76471,-1.7647c-0.58823,-0.58823 -2.35294,-2.35294 -3.82353,-4.41177l-0.88235,-1.17647l-1.17647,-1.47059l-0.88235,-1.47059" id="svg_13" stroke="#000" fill="none"/>
  <path d="m33.23527,24.70589c-0.29412,0 -0.20797,0.08615 0,0.29412c0.20797,0.20797 0.8548,0.91277 1.17647,1.17647c0.8201,0.67231 1.31596,1.2204 1.47058,1.47059c0.34576,0.55945 0.88235,0.58823 1.17647,0.88235l0.29412,0.29412l0.29412,0" id="svg_14" stroke="#000" fill="none"/>
  <path d="m113.52938,15.00001c0,0.29412 0,0.88235 0,2.05882c0,1.76471 0,2.94118 0,6.17647c0,3.52941 0,5.58823 0,9.41176c0,4.70588 0,7.05882 0,11.47058c0,3.82353 0.22935,5.89049 0,9.11765c-0.29486,4.14899 -1.01042,5.5655 -1.47059,8.52941c-0.40861,2.63182 -0.7491,3.77784 -1.17648,5.58824c-0.47782,2.02409 -0.24918,2.65921 -0.58823,3.82352c-0.52008,1.78598 -0.58823,2.64706 -0.58823,3.2353c0,0.88235 0,1.17647 0,1.47058c0,0.29412 0.00787,0.52067 0.29412,0.58824c0.64007,0.1511 1.17647,0.29411 1.7647,0.29411c0.88235,0 2.35294,0 3.82353,0c0.88235,0 1.7647,0 2.05882,0l0.29411,0" id="svg_15" stroke="#000" fill="none"/>
  <path d="m132.35291,48.23529c0,0.29412 0,0.88235 0,1.47059c0,0.58824 0.14595,1.73758 0.29411,2.94118c0.1078,0.87574 0,2.35294 0,4.11765c0,0.58824 0,2.35294 0,3.82353c0,0.29412 0,1.17647 0,2.35294c0,0.58823 0.29413,1.47059 0.29413,2.35294c0,0.58824 0,1.76471 0,2.64706c0,0.58823 0,1.47059 0,2.35294c0,0.29412 0,1.17648 0,1.76471c0,0.29411 0,0.88235 0,1.47059c0,0.29411 0,0.88235 0,1.17647c0,0.29412 0,0.58823 0,1.17647l0,0.29412l-0.29413,0" id="svg_16" stroke="#000" fill="none"/>
  <path d="m131.17644,38.52942c0,0.29412 0.18156,0.61062 0.29411,0.88235c0.15918,0.38428 0.67439,0.67439 0.88235,0.88235c0.20798,0.20797 0.29411,0.58823 0.29411,0.88235c0,0.29412 0.29413,0.29412 0.58824,0.88235l0.29411,0.29412" id="svg_17" stroke="#000" fill="none"/>
  <path d="m167.94113,21.47059c0,-0.29412 -0.29411,-0.29412 -0.58823,-0.29412c-0.58824,0 -1.51537,-0.2251 -2.05882,0c-0.76857,0.31835 -1.73866,1.49785 -2.35295,2.05882c-1.69626,1.54904 -3.64383,3.42821 -4.41176,4.41176c-2.11086,2.70352 -4.17473,5.55545 -5,7.05882c-1.2659,2.30606 -2.58646,5.02572 -3.23529,6.47058c-0.80824,1.79985 -1.99002,4.42722 -2.35295,5.88235c-0.74312,2.9794 -1.75174,6.17868 -2.05882,7.94117c-0.56444,3.23953 -1.55019,6.74762 -1.76469,7.94118c-0.4711,2.62135 -0.60748,4.99382 -0.88235,5.88235c-0.63283,2.04557 -0.89786,4.408 -1.17647,5.58824c-0.623,2.63909 -1.01906,4.72004 -1.17648,5.58823c-0.44836,2.47261 -1.62981,4.03019 -2.05882,5c-0.49059,1.10901 -0.88235,2.35294 -1.17647,2.64706c-0.29411,0.29411 -1.01729,0.79219 -1.17647,1.17647c-0.11255,0.27173 -0.29411,0.29412 -0.29411,0.58823l-0.29413,-0.58823l-0.29411,-0.29411" id="svg_18" stroke="#000" fill="none"/>
  <path d="m142.94113,51.17647c0.29413,0 0.58824,0 1.76471,0c0.58824,0 1.4706,0 2.64706,0c0.88235,0 1.77611,0.14133 2.64705,0c0.91808,-0.14898 1.12465,-0.43713 1.76471,-0.58823c0.28624,-0.06757 0.88235,0 1.4706,0c0.29411,0 0.58823,0 0.88234,-0.29412l0.29413,0l0.29411,0" id="svg_19" stroke="#000" fill="none"/>
  <path d="m172.35291,50.29412c0.58823,0 0.88234,0.29412 2.35294,0.29412c1.17647,0 4.70589,0 10,0c2.64705,0 8.58394,-0.26858 12.94118,-1.17647c2.09619,-0.43677 4.83038,-1.59655 6.47058,-2.94118c0.64334,-0.52741 1.52655,-1.14162 2.05882,-2.05882c0.33009,-0.56882 0.58824,-1.17647 0.58824,-2.05882c0,-0.29412 0,-0.88235 0,-1.76471c0,-0.58823 0.1266,-1.80382 -0.29413,-2.94118c-0.22818,-0.61681 -1.10197,-1.87393 -2.35294,-2.64706c-0.55945,-0.34576 -1.72986,-0.93832 -2.64706,-1.47059c-0.56882,-0.3301 -0.88234,-0.29412 -2.35294,-0.29412c-0.58824,0 -2.35294,0 -4.41176,0c-1.17647,0 -4.20935,-0.02491 -6.76471,0.88235c-1.23953,0.44008 -3.90118,1.32666 -6.17647,2.64706c-0.91721,0.53227 -2.86272,1.83316 -4.41176,3.52941c-0.84146,0.92143 -2.05884,2.64705 -3.23531,5c-0.58823,1.17647 -1.57281,3.4975 -2.35294,6.17647c-0.33905,1.16432 -0.88058,3.77515 -1.17647,6.47059c-0.16046,1.46181 -0.38933,2.39009 0,4.41176c0.29951,1.55529 0.91534,2.62303 1.76471,3.82353c0.61249,0.86569 2.25026,2.80215 5.29411,4.70589c2.56734,1.60571 3.82353,1.7647 7.35294,2.35294c3.52942,0.58823 5.59367,0.82813 10.88235,0.58823c3.2453,-0.14721 8.81085,-1.23843 14.41176,-2.35294c4.69583,-0.93441 6.20352,-1.39321 8.82353,-2.35294c1.48723,-0.54478 1.76471,-0.58823 2.35294,-0.88235l0.29411,0l0.29413,-0.29411" id="svg_20" stroke="#000" fill="none"/>
 </g>
</svg>